<svg width="1024" height="1024" viewBox="0 0 1024 1024" fill="none" xmlns="http://www.w3.org/2000/svg">
  <defs>
    <linearGradient id="blobGradient" x1="284" y1="174" x2="726" y2="842" gradientUnits="userSpaceOnUse">
      <stop stop-color="#B7B2FF"/>
      <stop offset="0.52" stop-color="#7E96FF"/>
      <stop offset="1" stop-color="#3448FF"/>
    </linearGradient>
    <linearGradient id="badgeStroke" x1="495" y1="390" x2="790" y2="706" gradientUnits="userSpaceOnUse">
      <stop stop-color="#EDF2FF"/>
      <stop offset="1" stop-color="#D9E3FF"/>
    </linearGradient>
    <filter id="cardShadow" x="450" y="360" width="390" height="390" filterUnits="userSpaceOnUse" color-interpolation-filters="sRGB">
      <feFlood flood-opacity="0" result="BackgroundImageFix"/>
      <feColorMatrix in="SourceAlpha" type="matrix" values="0 0 0 0 0 0 0 0 0 0 0 0 0 0 0 0 0 0 127 0" result="hardAlpha"/>
      <feOffset dy="18"/>
      <feGaussianBlur stdDeviation="18"/>
      <feColorMatrix type="matrix" values="0 0 0 0 0.109804 0 0 0 0 0.172549 0 0 0 0 0.486275 0 0 0 0.16 0"/>
      <feBlend mode="normal" in2="BackgroundImageFix" result="effect1_dropShadow_1_1"/>
      <feBlend mode="normal" in="SourceGraphic" in2="effect1_dropShadow_1_1" result="shape"/>
    </filter>
  </defs>

  <rect width="1024" height="1024" rx="220" fill="white"/>

  <g>
    <circle cx="502" cy="284" r="192" fill="url(#blobGradient)"/>
    <circle cx="280" cy="438" r="182" fill="url(#blobGradient)"/>
    <circle cx="732" cy="436" r="186" fill="url(#blobGradient)"/>
    <circle cx="368" cy="718" r="170" fill="url(#blobGradient)"/>
    <circle cx="568" cy="734" r="164" fill="url(#blobGradient)"/>
    <circle cx="510" cy="534" r="266" fill="url(#blobGradient)"/>
  </g>

  <g opacity="0.98">
    <path d="M334 360L422 510L334 660" stroke="white" stroke-width="54" stroke-linecap="round" stroke-linejoin="round"/>
    <path d="M534 660H668" stroke="white" stroke-width="54" stroke-linecap="round"/>
  </g>

  <g filter="url(#cardShadow)">
    <rect x="492" y="398" width="242" height="150" rx="38" fill="white" fill-opacity="0.95"/>
    <rect x="558" y="560" width="242" height="150" rx="38" fill="white" fill-opacity="0.97"/>

    <circle cx="564" cy="473" r="27" fill="#6D82FF"/>
    <rect x="608" y="447" width="88" height="19" rx="9.5" fill="#C4D1FF"/>
    <rect x="608" y="481" width="64" height="16" rx="8" fill="#DCE5FF"/>

    <circle cx="630" cy="635" r="27" fill="#3DCFA1"/>
    <rect x="674" y="609" width="88" height="19" rx="9.5" fill="#C4D1FF"/>
    <rect x="674" y="643" width="64" height="16" rx="8" fill="#DCE5FF"/>

    <path d="M690 540C724 561 742 587 742 614" stroke="#4A63FF" stroke-width="22" stroke-linecap="round"/>
    <path d="M714 608L742 636L770 608" stroke="#4A63FF" stroke-width="22" stroke-linecap="round" stroke-linejoin="round"/>

    <path d="M604 568C570 547 552 521 552 494" stroke="#4A63FF" stroke-width="22" stroke-linecap="round"/>
    <path d="M580 500L552 472L524 500" stroke="#4A63FF" stroke-width="22" stroke-linecap="round" stroke-linejoin="round"/>

    <rect x="492" y="398" width="242" height="150" rx="38" stroke="url(#badgeStroke)" stroke-width="6"/>
    <rect x="558" y="560" width="242" height="150" rx="38" stroke="url(#badgeStroke)" stroke-width="6"/>
  </g>
</svg>
